<?xml version="1.0" ?>
<!-- Uploaded to: SVG Repo, www.svgrepo.com, Generator: SVG Repo Mixer Tools -->
<svg fill="#000000" width="800px" height="800px" viewBox="0 0 32 32" xmlns="http://www.w3.org/2000/svg">
<g data-name="12. Pie Chart" id="_12._Pie_Chart">
<path d="M31.82,13.6a1,1,0,0,0-1.27-.81L24.7,14.5a1,1,0,0,0-.72,1c0,.16,0,.32,0,.48a8,8,0,1,1-8-8,9.64,9.64,0,0,1,1.24.09,1,1,0,0,0,1.07-.62l2.24-5.66a1,1,0,0,0,0-.83,1,1,0,0,0-.65-.51A16,16,0,1,0,32,16,16.26,16.26,0,0,0,31.82,13.6ZM16,30A14,14,0,1,1,18.25,2.18L16.73,6,16,6A10,10,0,1,0,26,16.2L30,15q0,.48,0,1A14,14,0,0,1,16,30Z"/>
<path d="M20.53,9.41A7.9,7.9,0,0,1,23,12.1a1,1,0,0,0,.88.52.9.9,0,0,0,.28,0L30,10.87a1,1,0,0,0,.63-.54,1,1,0,0,0,0-.82,16.08,16.08,0,0,0-6.78-7.46A1,1,0,0,0,23,2a1,1,0,0,0-.6.57L20.16,8.21A1,1,0,0,0,20.53,9.41Zm3.3-5a14.1,14.1,0,0,1,4.45,4.89l-4,1.16a9.82,9.82,0,0,0-2-2.21Z"/>
<path d="M16,13h2a1,1,0,0,0,0-2H17a1,1,0,0,0-2,0v.18A3,3,0,0,0,16,17a1,1,0,0,1,0,2H14a1,1,0,0,0,0,2h1a1,1,0,0,0,2,0v-.18A3,3,0,0,0,16,15a1,1,0,0,1,0-2Z"/>
</g>
</svg>