<!DOCTYPE svg PUBLIC "-//W3C//DTD SVG 1.1//EN" "http://www.w3.org/Graphics/SVG/1.1/DTD/svg11.dtd">
<!-- Uploaded to: SVG Repo, www.svgrepo.com, Transformed by: SVG Repo Mixer Tools -->
<svg width="800px" height="800px" viewBox="-102.4 -102.4 1228.80 1228.80" class="icon" version="1.1" xmlns="http://www.w3.org/2000/svg" fill="#000000">
<g id="SVGRepo_bgCarrier" stroke-width="0" transform="translate(92.16000000000003,92.16000000000003), scale(0.82)">
<rect x="-102.4" y="-102.4" width="1228.80" height="1228.80" rx="147.456" fill="#04c670" strokewidth="0"/>
</g>
<g id="SVGRepo_tracerCarrier" stroke-linecap="round" stroke-linejoin="round" stroke="#CCCCCC" stroke-width="6.144"/>
<g id="SVGRepo_iconCarrier">
<path d="M832 384l8 1.6-1.6 8 1.6 3.2-4.8 3.2-44.8 161.6-16-4.8 40-147.2-260.8 144-158.4 284.8-11.2-6.4-6.4 6.4-176-176 11.2-11.2 163.2 163.2 147.2-265.6-294.4-297.6 11.2-11.2v-8h9.6l3.2-3.2 3.2 3.2L664 208l1.6 16-395.2 22.4 278.4 278.4 276.8-153.6 6.4 12.8z" fill="#ffffff"/>
<path d="M896 384c0 35.2-28.8 64-64 64s-64-28.8-64-64 28.8-64 64-64 64 28.8 64 64z m-656-32c-62.4 0-112-49.6-112-112s49.6-112 112-112 112 49.6 112 112-49.6 112-112 112z m304 336c-80 0-144-64-144-144s64-144 144-144 144 64 144 144-64 144-144 144z m-224 144c0-35.2 28.8-64 64-64s64 28.8 64 64-28.8 64-64 64-64-28.8-64-64z m-144-176c0-17.6 14.4-32 32-32s32 14.4 32 32-14.4 32-32 32-32-14.4-32-32z m448-440c0-22.4 17.6-40 40-40s40 17.6 40 40-17.6 40-40 40-40-17.6-40-40zM736 560c0-27.2 20.8-48 48-48s48 20.8 48 48-20.8 48-48 48-48-20.8-48-48z" fill="#ffffff"/>
</g>
</svg>